<svg xmlns="http://www.w3.org/2000/svg" viewBox="0 0 900 560">
<defs><linearGradient id="bg" x1="0" y1="0" x2="1" y2="1"><stop stop-color="#08111a"/><stop offset="1" stop-color="#101128"/></linearGradient><linearGradient id="a" x1="0" x2="1"><stop stop-color="#00d9ff"/><stop offset="1" stop-color="#7c3aed"/></linearGradient></defs>
<rect width="900" height="560" fill="url(#bg)"/>
<g opacity=".18" stroke="#00d9ff"><path d="M0 80h900M0 160h900M0 240h900M0 320h900M0 400h900M0 480h900M80 0v560M180 0v560M280 0v560M380 0v560M480 0v560M580 0v560M680 0v560M780 0v560"/></g>
<rect x="90" y="90" width="720" height="380" rx="28" fill="#0d1621" stroke="#00d9ff" stroke-opacity=".25"/>
<path d="M140 390 L240 300 L340 330 L455 210 L570 250 L720 145" fill="none" stroke="url(#a)" stroke-width="12" stroke-linecap="round"/>
<g fill="#00d9ff"><circle cx="240" cy="300" r="12"/><circle cx="455" cy="210" r="12"/><circle cx="720" cy="145" r="12"/></g>
<rect x="140" y="120" width="170" height="26" rx="13" fill="#00d9ff" opacity=".7"/><rect x="140" y="165" width="110" height="18" rx="9" fill="#fff" opacity=".45"/><rect x="620" y="335" width="100" height="80" rx="12" fill="#00d9ff" opacity=".22"/><rect x="500" y="295" width="100" height="120" rx="12" fill="#00d9ff" opacity=".4"/><rect x="380" y="245" width="100" height="170" rx="12" fill="#00d9ff" opacity=".65"/>
<text x="450" y="520" fill="#eaf8ff" text-anchor="middle" font-family="Inter,Arial" font-size="28" font-weight="700">inventory analytics preview</text>
</svg>
